<?xml version="1.0" encoding="UTF-8" standalone="no"?>
<!DOCTYPE svg PUBLIC "-//W3C//DTD SVG 1.1//EN"
 "http://www.w3.org/Graphics/SVG/1.1/DTD/svg11.dtd">
<!-- Generated by graphviz version 9.0.0 (20230911.1827)
 -->
<!-- Pages: 1 -->
<svg width="800pt" height="476pt"
 viewBox="0.00 0.00 800.05 476.00" xmlns="http://www.w3.org/2000/svg" xmlns:xlink="http://www.w3.org/1999/xlink">
<g id="graph0" class="graph" transform="scale(1 1) rotate(0) translate(4 472)">
<polygon fill="white" stroke="none" points="-4,4 -4,-472 796.05,-472 796.05,4 -4,4"/>
<!-- [root] aws_instance.Public&#45;EC2&#45;instance (expand) -->
<g id="node1" class="node">
<title>[root] aws_instance.Public&#45;EC2&#45;instance (expand)</title>
<polygon fill="none" stroke="black" points="454.37,-324 246.37,-324 246.37,-288 454.37,-288 454.37,-324"/>
<text text-anchor="middle" x="350.37" y="-300.57" font-family="Times New Roman,serif" font-size="14.00">aws_instance.Public&#45;EC2&#45;instance</text>
</g>
<!-- [root] aws_subnet.public&#45;subnet (expand) -->
<g id="node3" class="node">
<title>[root] aws_subnet.public&#45;subnet (expand)</title>
<polygon fill="none" stroke="black" points="633.12,-252 471.62,-252 471.62,-216 633.12,-216 633.12,-252"/>
<text text-anchor="middle" x="552.37" y="-228.57" font-family="Times New Roman,serif" font-size="14.00">aws_subnet.public&#45;subnet</text>
</g>
<!-- [root] aws_instance.Public&#45;EC2&#45;instance (expand)&#45;&gt;[root] aws_subnet.public&#45;subnet (expand) -->
<g id="edge1" class="edge">
<title>[root] aws_instance.Public&#45;EC2&#45;instance (expand)&#45;&gt;[root] aws_subnet.public&#45;subnet (expand)</title>
<path fill="none" stroke="black" d="M400.82,-287.52C428.28,-278 462.45,-266.16 491.4,-256.13"/>
<polygon fill="black" stroke="black" points="492.47,-259.46 500.78,-252.88 490.18,-252.84 492.47,-259.46"/>
</g>
<!-- [root] data.aws_key_pair.practice&#45;6&#45;key (expand) -->
<g id="node5" class="node">
<title>[root] data.aws_key_pair.practice&#45;6&#45;key (expand)</title>
<polygon fill="none" stroke="black" points="452.12,-252 248.62,-252 248.62,-216 452.12,-216 452.12,-252"/>
<text text-anchor="middle" x="350.37" y="-228.57" font-family="Times New Roman,serif" font-size="14.00">data.aws_key_pair.practice&#45;6&#45;key</text>
</g>
<!-- [root] aws_instance.Public&#45;EC2&#45;instance (expand)&#45;&gt;[root] data.aws_key_pair.practice&#45;6&#45;key (expand) -->
<g id="edge2" class="edge">
<title>[root] aws_instance.Public&#45;EC2&#45;instance (expand)&#45;&gt;[root] data.aws_key_pair.practice&#45;6&#45;key (expand)</title>
<path fill="none" stroke="black" d="M350.37,-287.7C350.37,-280.41 350.37,-271.73 350.37,-263.54"/>
<polygon fill="black" stroke="black" points="353.87,-263.62 350.37,-253.62 346.87,-263.62 353.87,-263.62"/>
</g>
<!-- [root] aws_subnet.private&#45;subnet (expand) -->
<g id="node2" class="node">
<title>[root] aws_subnet.private&#45;subnet (expand)</title>
<polygon fill="none" stroke="black" points="636.62,-324 472.12,-324 472.12,-288 636.62,-288 636.62,-324"/>
<text text-anchor="middle" x="554.37" y="-300.57" font-family="Times New Roman,serif" font-size="14.00">aws_subnet.private&#45;subnet</text>
</g>
<!-- [root] aws_subnet.private&#45;subnet (expand)&#45;&gt;[root] aws_subnet.public&#45;subnet (expand) -->
<g id="edge3" class="edge">
<title>[root] aws_subnet.private&#45;subnet (expand)&#45;&gt;[root] aws_subnet.public&#45;subnet (expand)</title>
<path fill="none" stroke="black" d="M553.87,-287.7C553.66,-280.41 553.42,-271.73 553.18,-263.54"/>
<polygon fill="black" stroke="black" points="556.68,-263.51 552.9,-253.62 549.69,-263.71 556.68,-263.51"/>
</g>
<!-- [root] aws_vpc.vpc&#45;virginia (expand) -->
<g id="node4" class="node">
<title>[root] aws_vpc.vpc&#45;virginia (expand)</title>
<polygon fill="none" stroke="black" points="682.99,-180 547.74,-180 547.74,-144 682.99,-144 682.99,-180"/>
<text text-anchor="middle" x="615.37" y="-156.57" font-family="Times New Roman,serif" font-size="14.00">aws_vpc.vpc&#45;virginia</text>
</g>
<!-- [root] aws_subnet.public&#45;subnet (expand)&#45;&gt;[root] aws_vpc.vpc&#45;virginia (expand) -->
<g id="edge4" class="edge">
<title>[root] aws_subnet.public&#45;subnet (expand)&#45;&gt;[root] aws_vpc.vpc&#45;virginia (expand)</title>
<path fill="none" stroke="black" d="M567.94,-215.7C575.34,-207.47 584.33,-197.48 592.49,-188.42"/>
<polygon fill="black" stroke="black" points="594.87,-191 598.96,-181.23 589.67,-186.32 594.87,-191"/>
</g>
<!-- [root] var.subnets -->
<g id="node7" class="node">
<title>[root] var.subnets</title>
<polygon fill="none" stroke="black" points="523.24,-180 449.49,-180 449.49,-144 529.24,-144 529.24,-174 523.24,-180"/>
<polyline fill="none" stroke="black" points="523.24,-180 523.24,-174"/>
<polyline fill="none" stroke="black" points="529.24,-174 523.24,-174"/>
<text text-anchor="middle" x="489.37" y="-156.57" font-family="Times New Roman,serif" font-size="14.00">var.subnets</text>
</g>
<!-- [root] aws_subnet.public&#45;subnet (expand)&#45;&gt;[root] var.subnets -->
<g id="edge5" class="edge">
<title>[root] aws_subnet.public&#45;subnet (expand)&#45;&gt;[root] var.subnets</title>
<path fill="none" stroke="black" d="M536.79,-215.7C529.39,-207.47 520.4,-197.48 512.24,-188.42"/>
<polygon fill="black" stroke="black" points="515.06,-186.32 505.77,-181.23 509.86,-191 515.06,-186.32"/>
</g>
<!-- [root] provider[&quot;registry.terraform.io/hashicorp/aws&quot;] -->
<g id="node6" class="node">
<title>[root] provider[&quot;registry.terraform.io/hashicorp/aws&quot;]</title>
<polygon fill="none" stroke="black" points="350.37,-108 87.62,-90 350.37,-72 613.12,-90 350.37,-108"/>
<text text-anchor="middle" x="350.37" y="-84.58" font-family="Times New Roman,serif" font-size="14.00">provider[&quot;registry.terraform.io/hashicorp/aws&quot;]</text>
</g>
<!-- [root] aws_vpc.vpc&#45;virginia (expand)&#45;&gt;[root] provider[&quot;registry.terraform.io/hashicorp/aws&quot;] -->
<g id="edge6" class="edge">
<title>[root] aws_vpc.vpc&#45;virginia (expand)&#45;&gt;[root] provider[&quot;registry.terraform.io/hashicorp/aws&quot;]</title>
<path fill="none" stroke="black" d="M549.18,-143.52C507.75,-132.57 454.67,-118.55 413.78,-107.75"/>
<polygon fill="black" stroke="black" points="414.89,-104.42 404.32,-105.25 413.1,-111.19 414.89,-104.42"/>
</g>
<!-- [root] var.virginia_cidr -->
<g id="node9" class="node">
<title>[root] var.virginia_cidr</title>
<polygon fill="none" stroke="black" points="731.37,-108 631.37,-108 631.37,-72 737.37,-72 737.37,-102 731.37,-108"/>
<polyline fill="none" stroke="black" points="731.37,-108 731.37,-102"/>
<polyline fill="none" stroke="black" points="737.37,-102 731.37,-102"/>
<text text-anchor="middle" x="684.37" y="-84.58" font-family="Times New Roman,serif" font-size="14.00">var.virginia_cidr</text>
</g>
<!-- [root] aws_vpc.vpc&#45;virginia (expand)&#45;&gt;[root] var.virginia_cidr -->
<g id="edge7" class="edge">
<title>[root] aws_vpc.vpc&#45;virginia (expand)&#45;&gt;[root] var.virginia_cidr</title>
<path fill="none" stroke="black" d="M632.42,-143.7C640.61,-135.39 650.58,-125.28 659.58,-116.14"/>
<polygon fill="black" stroke="black" points="661.92,-118.76 666.44,-109.18 656.93,-113.85 661.92,-118.76"/>
</g>
<!-- [root] data.aws_key_pair.practice&#45;6&#45;key (expand)&#45;&gt;[root] provider[&quot;registry.terraform.io/hashicorp/aws&quot;] -->
<g id="edge8" class="edge">
<title>[root] data.aws_key_pair.practice&#45;6&#45;key (expand)&#45;&gt;[root] provider[&quot;registry.terraform.io/hashicorp/aws&quot;]</title>
<path fill="none" stroke="black" d="M350.37,-215.59C350.37,-191.61 350.37,-148.14 350.37,-119.42"/>
<polygon fill="black" stroke="black" points="353.87,-119.62 350.37,-109.62 346.87,-119.62 353.87,-119.62"/>
</g>
<!-- [root] var.tags -->
<g id="node8" class="node">
<title>[root] var.tags</title>
<polygon fill="none" stroke="black" points="374.12,-36 320.62,-36 320.62,0 380.12,0 380.12,-30 374.12,-36"/>
<polyline fill="none" stroke="black" points="374.12,-36 374.12,-30"/>
<polyline fill="none" stroke="black" points="380.12,-30 374.12,-30"/>
<text text-anchor="middle" x="350.37" y="-12.57" font-family="Times New Roman,serif" font-size="14.00">var.tags</text>
</g>
<!-- [root] provider[&quot;registry.terraform.io/hashicorp/aws&quot;]&#45;&gt;[root] var.tags -->
<g id="edge12" class="edge">
<title>[root] provider[&quot;registry.terraform.io/hashicorp/aws&quot;]&#45;&gt;[root] var.tags</title>
<path fill="none" stroke="black" d="M350.37,-71.7C350.37,-64.41 350.37,-55.73 350.37,-47.54"/>
<polygon fill="black" stroke="black" points="353.87,-47.62 350.37,-37.62 346.87,-47.62 353.87,-47.62"/>
</g>
<!-- [root] output.ec2_public_ip (expand) -->
<g id="node10" class="node">
<title>[root] output.ec2_public_ip (expand)</title>
<ellipse fill="none" stroke="black" cx="149.37" cy="-378" rx="149.37" ry="18"/>
<text text-anchor="middle" x="149.37" y="-372.57" font-family="Times New Roman,serif" font-size="14.00">[root] output.ec2_public_ip (expand)</text>
</g>
<!-- [root] output.ec2_public_ip (expand)&#45;&gt;[root] aws_instance.Public&#45;EC2&#45;instance (expand) -->
<g id="edge9" class="edge">
<title>[root] output.ec2_public_ip (expand)&#45;&gt;[root] aws_instance.Public&#45;EC2&#45;instance (expand)</title>
<path fill="none" stroke="black" d="M196.75,-360.5C224.45,-350.85 259.71,-338.57 289.46,-328.21"/>
<polygon fill="black" stroke="black" points="290.42,-331.58 298.72,-324.99 288.12,-324.97 290.42,-331.58"/>
</g>
<!-- [root] provider[&quot;registry.terraform.io/hashicorp/aws&quot;] (close) -->
<g id="node11" class="node">
<title>[root] provider[&quot;registry.terraform.io/hashicorp/aws&quot;] (close)</title>
<ellipse fill="none" stroke="black" cx="554.37" cy="-378" rx="237.69" ry="18"/>
<text text-anchor="middle" x="554.37" y="-372.57" font-family="Times New Roman,serif" font-size="14.00">[root] provider[&quot;registry.terraform.io/hashicorp/aws&quot;] (close)</text>
</g>
<!-- [root] provider[&quot;registry.terraform.io/hashicorp/aws&quot;] (close)&#45;&gt;[root] aws_instance.Public&#45;EC2&#45;instance (expand) -->
<g id="edge10" class="edge">
<title>[root] provider[&quot;registry.terraform.io/hashicorp/aws&quot;] (close)&#45;&gt;[root] aws_instance.Public&#45;EC2&#45;instance (expand)</title>
<path fill="none" stroke="black" d="M504.72,-359.97C476.78,-350.38 441.65,-338.32 411.97,-328.14"/>
<polygon fill="black" stroke="black" points="413.32,-324.9 402.73,-324.97 411.05,-331.52 413.32,-324.9"/>
</g>
<!-- [root] provider[&quot;registry.terraform.io/hashicorp/aws&quot;] (close)&#45;&gt;[root] aws_subnet.private&#45;subnet (expand) -->
<g id="edge11" class="edge">
<title>[root] provider[&quot;registry.terraform.io/hashicorp/aws&quot;] (close)&#45;&gt;[root] aws_subnet.private&#45;subnet (expand)</title>
<path fill="none" stroke="black" d="M554.37,-359.7C554.37,-352.41 554.37,-343.73 554.37,-335.54"/>
<polygon fill="black" stroke="black" points="557.87,-335.62 554.37,-325.62 550.87,-335.62 557.87,-335.62"/>
</g>
<!-- [root] root -->
<g id="node12" class="node">
<title>[root] root</title>
<ellipse fill="none" stroke="black" cx="351.37" cy="-450" rx="50.07" ry="18"/>
<text text-anchor="middle" x="351.37" y="-444.57" font-family="Times New Roman,serif" font-size="14.00">[root] root</text>
</g>
<!-- [root] root&#45;&gt;[root] output.ec2_public_ip (expand) -->
<g id="edge13" class="edge">
<title>[root] root&#45;&gt;[root] output.ec2_public_ip (expand)</title>
<path fill="none" stroke="black" d="M316.18,-436.81C286.27,-426.44 242.71,-411.35 207.61,-399.18"/>
<polygon fill="black" stroke="black" points="209.04,-395.97 198.44,-396.01 206.75,-402.59 209.04,-395.97"/>
</g>
<!-- [root] root&#45;&gt;[root] provider[&quot;registry.terraform.io/hashicorp/aws&quot;] (close) -->
<g id="edge14" class="edge">
<title>[root] root&#45;&gt;[root] provider[&quot;registry.terraform.io/hashicorp/aws&quot;] (close)</title>
<path fill="none" stroke="black" d="M386.73,-436.81C416.37,-426.58 459.36,-411.76 494.38,-399.69"/>
<polygon fill="black" stroke="black" points="495.22,-403.1 503.54,-396.53 492.94,-396.48 495.22,-403.1"/>
</g>
</g>
</svg>
